HIERARCHY
ROOT Hips
{
 OFFSET 0.000000 0.000000 0.000000
 CHANNELS 6 Xposition Yposition Zposition Yrotation Xrotation Zrotation
 JOINT Chest
 {
  OFFSET 0.000000 13.173100 -0.061900
  CHANNELS 3 Yrotation Xrotation Zrotation
  JOINT Chest2
  {
   OFFSET 0.000000 8.040800 0.126200
   CHANNELS 3 Yrotation Xrotation Zrotation
   JOINT Chest3
   {
    OFFSET 0.000000 7.994400 0.000000
    CHANNELS 3 Yrotation Xrotation Zrotation
    JOINT Chest4
    {
     OFFSET 0.000000 7.986200 0.000000
     CHANNELS 3 Yrotation Xrotation Zrotation
     JOINT Neck
     {
      OFFSET 0.000000 12.259400 0.000000
      CHANNELS 3 Yrotation Xrotation Zrotation
      JOINT Head
      {
       OFFSET 0.000000 7.518700 0.267100
       CHANNELS 3 Yrotation Xrotation Zrotation
       End Site
       {
        OFFSET 0.000000 13.617700 0.141000
       }
      }
     }
     JOINT RightCollar
     {
      OFFSET -2.983800 8.314300 0.000000
      CHANNELS 3 Yrotation Xrotation Zrotation
      JOINT RightShoulder
      {
       OFFSET -16.133400 0.000000 0.000000
       CHANNELS 3 Yrotation Xrotation Zrotation
       JOINT RightElbow
       {
        OFFSET 0.000000 -29.822100 0.000000
        CHANNELS 3 Yrotation Xrotation Zrotation
        JOINT RightWrist
        {
         OFFSET 0.000000 -24.437700 0.010900
         CHANNELS 3 Yrotation Xrotation Zrotation
         End Site
         {
          OFFSET 0.000000 -18.312300 0.000000
         }
        }
       }
      }
     }
     JOINT LeftCollar
     {
      OFFSET 2.983800 8.314300 0.000000
      CHANNELS 3 Yrotation Xrotation Zrotation
      JOINT LeftShoulder
      {
       OFFSET 16.133400 0.000000 0.000000
       CHANNELS 3 Yrotation Xrotation Zrotation
       JOINT LeftElbow
       {
        OFFSET 0.000000 -29.822100 0.000000
        CHANNELS 3 Yrotation Xrotation Zrotation
        JOINT LeftWrist
        {
         OFFSET 0.000000 -24.437700 0.010900
         CHANNELS 3 Yrotation Xrotation Zrotation
         End Site
         {
          OFFSET 0.000000 -18.312300 0.000000
         }
        }
       }
      }
     }
    }
   }
  }
 }
 JOINT RightHip
 {
  OFFSET -11.206700 0.306200 0.030900
  CHANNELS 3 Yrotation Xrotation Zrotation
  JOINT RightKnee
  {
   OFFSET 0.000000 -57.334900 0.009400
   CHANNELS 3 Yrotation Xrotation Zrotation
   JOINT RightAnkle
   {
    OFFSET 0.000000 -43.376200 0.036600
    CHANNELS 3 Yrotation Xrotation Zrotation
    JOINT RightToe
    {
     OFFSET 0.000000 -10.035500 18.363100
     CHANNELS 3 Yrotation Xrotation Zrotation
     End Site
     {
      OFFSET 0.000000 -1.618500 7.239000
     }
    }
   }
  }
 }
 JOINT LeftHip
 {
  OFFSET 11.206700 0.306200 0.030900
  CHANNELS 3 Yrotation Xrotation Zrotation
  JOINT LeftKnee
  {
   OFFSET 0.000000 -57.334900 0.009400
   CHANNELS 3 Yrotation Xrotation Zrotation
   JOINT LeftAnkle
   {
    OFFSET 0.000000 -43.376200 0.036600
    CHANNELS 3 Yrotation Xrotation Zrotation
    JOINT LeftToe
    {
     OFFSET 0.000000 -10.035500 18.363100
     CHANNELS 3 Yrotation Xrotation Zrotation
     End Site
     {
      OFFSET 0.000000 -1.618500 7.239000
     }
    }
   }
  }
 }
}
MOTION
Frames: 15
Frame Time: 0.008333
-94.859290 66.690177 93.140016 173.174519 -40.005113 -4.009503 3.584164 20.291433 2.745326 0.378921 2.648941 0.319299 0.627757 4.330240 0.531800 2.856324 17.471543 2.502863 1.276638 16.610698 -1.016244 2.711261 -4.882489 -2.316525 -4.809504 2.261656 -0.990253 -8.504331 1.326205 -0.025907 178.112564 -66.115403 -166.171994 25.852247 19.323080 65.032993 -3.490958 2.972990 0.041528 8.822959 0.343966 2.687966 -141.387327 -65.014254 135.479392 -15.658995 5.667808 -7.926853 -1.679753 -41.807275 3.744091 -122.833532 85.808778 -118.225385 -0.118664 -8.844102 -0.251563 0.324636 -0.664503 0.358461 -2.248132 -37.482736 5.828321 65.858737 83.660725 55.684200 -4.733148 -11.794029 9.472694 -0.120646 0.097060 0.044779
-94.814060 66.672747 93.159952 173.259741 -40.055747 -4.065780 3.572640 20.362640 2.784726 0.376362 2.651050 0.322094 0.604476 4.322919 0.524867 2.869924 17.496747 2.538520 1.232406 16.587872 -1.047903 2.671713 -4.772045 -2.281674 -4.809137 2.256424 -1.014001 -8.443140 1.333107 -0.096160 179.039205 -66.133857 -166.878937 25.859115 19.278028 65.382142 -3.531108 2.966180 0.029819 8.729902 0.286144 2.735396 -142.204266 -65.359335 136.210376 -15.189035 5.229099 -7.239006 -1.914259 -41.945881 3.953677 -122.239788 85.247891 -117.756838 0.155568 -8.778223 -0.080726 0.310948 -0.714858 0.199991 -2.246218 -37.450443 5.844249 65.698586 83.699678 55.560156 -4.716146 -11.812570 9.461314 -0.129949 0.115766 0.037977
-94.765102 66.658161 93.177797 173.383354 -40.080017 -4.190006 3.531125 20.401079 2.858535 0.365116 2.648449 0.319446 0.603935 4.325772 0.527314 2.860924 17.498081 2.546908 1.226289 16.639618 -1.032413 2.638503 -4.699623 -2.262453 -4.764256 2.286862 -1.008365 -8.403262 1.332287 -0.160429 179.911383 -66.153766 -167.549310 25.834729 19.195602 65.612954 -3.543162 2.969679 0.033600 8.696086 0.242367 2.714749 -143.164497 -65.781083 136.971053 -14.668262 4.752384 -6.573961 -2.288412 -42.017345 4.236469 -121.728803 84.859776 -117.383513 0.393738 -8.857207 0.050395 0.233958 -0.613050 0.055242 -2.331589 -37.435236 5.953222 65.577554 83.734513 55.410686 -4.718518 -11.821532 9.503229 -0.159113 0.129769 0.019973
-94.716295 66.648952 93.189577 173.518779 -40.097235 -4.350369 3.467504 20.424536 2.945894 0.397837 2.666597 0.343113 0.594754 4.322584 0.523803 2.833227 17.491464 2.544466 1.236702 16.722795 -0.989320 2.603930 -4.650511 -2.258708 -4.757493 2.286374 -1.013744 -8.324367 1.360883 -0.205088 -179.298988 -66.180130 -168.163429 25.767742 19.078762 65.736044 -3.527506 2.946943 0.024579 8.652082 0.208860 2.689104 -144.216206 -66.284826 137.780737 -14.130974 4.241733 -5.905589 -2.688506 -42.020714 4.521841 -121.522837 84.673055 -117.279669 0.538266 -8.999660 0.117614 0.148274 -0.460427 -0.059526 -2.459765 -37.417614 6.176441 65.292166 83.828373 55.019075 -4.802845 -11.803588 9.595813 -0.135200 0.122881 0.030785
-94.679499 66.644052 93.192396 173.615199 -40.116851 -4.461201 3.451149 20.460640 3.032412 0.399082 2.677076 0.354278 0.587747 4.313543 0.520487 2.846256 17.506466 2.597684 1.203616 16.769086 -0.996963 2.573464 -4.585144 -2.245535 -4.757272 2.268293 -1.051350 -8.284005 1.371674 -0.245098 -178.603586 -66.220598 -168.709009 25.652830 18.928629 65.756069 -3.553941 2.892360 -0.042336 8.628384 0.163531 2.653770 -145.305832 -66.837044 138.599249 -13.607927 3.708156 -5.216508 -2.973054 -41.972554 4.697277 -121.756495 84.667627 -117.552062 0.579011 -9.159503 0.101503 0.072026 -0.288739 -0.104066 -2.566367 -37.392273 6.352736 64.994427 83.916932 54.628638 -4.854821 -11.795790 9.656802 -0.117798 0.120218 0.045315
-94.655764 66.639284 93.187846 173.671550 -40.131685 -4.515206 3.449461 20.499418 3.086900 0.388757 2.680327 0.359062 0.614452 4.334686 0.553550 2.817242 17.485991 2.594355 1.193603 16.821736 -0.982005 2.548550 -4.523370 -2.229747 -4.699195 2.272651 -1.031786 -8.301407 1.353588 -0.302881 -178.007951 -66.277560 -169.175979 25.490441 18.757325 65.673347 -3.583689 2.857269 -0.089619 8.630217 0.087820 2.594770 -146.360150 -67.407613 139.377111 -13.117292 3.155042 -4.517435 -3.112817 -41.895409 4.735676 -122.367924 84.793286 -118.126147 0.577900 -9.339703 0.008492 -0.010307 -0.105382 -0.093616 -2.623465 -37.373296 6.427416 64.853552 83.960591 54.450383 -4.858367 -11.793866 9.667675 -0.125216 0.115739 0.060888
-94.642918 66.628242 93.179115 173.705598 -40.128237 -4.530627 3.441725 20.524916 3.112231 0.381374 2.674868 0.356041 0.610058 4.326125 0.547580 2.830575 17.494778 2.625203 1.190727 16.860096 -0.967797 2.537322 -4.452727 -2.201322 -4.653265 2.270974 -1.016769 -8.303501 1.339731 -0.332836 -177.536088 -66.347245 -169.548741 25.278143 18.575897 65.491384 -3.575474 2.798076 -0.143900 8.602959 0.019675 2.539937 -147.274601 -67.974344 140.037639 -12.663141 2.579152 -3.824456 -3.134954 -41.809411 4.654795 -123.198800 84.997931 -118.849490 0.563028 -9.525495 -0.152846 -0.071760 0.041633 -0.056894 -2.649039 -37.373766 6.471585 64.721316 84.006590 54.276444 -4.872736 -11.790031 9.678967 -0.117386 0.109551 0.063012
-94.634527 66.604314 93.169444 173.725054 -40.097855 -4.537620 3.437889 20.527410 3.138901 0.370269 2.650721 0.334690 0.613912 4.332785 0.556700 2.845887 17.501655 2.655180 1.179533 16.882010 -0.965775 2.538978 -4.378052 -2.159424 -4.622706 2.267629 -1.008078 -8.293792 1.325134 -0.342609 -177.207171 -66.424836 -169.818785 25.017062 18.386147 65.215503 -3.560035 2.745244 -0.195884 8.554392 -0.066246 2.468885 -147.951998 -68.514427 140.506751 -12.244918 1.984000 -3.146361 -3.097414 -41.724743 4.519163 -124.006945 85.236673 -119.503401 0.551041 -9.706809 -0.364979 -0.118344 0.156725 0.000244 -2.687612 -37.393019 6.610717 64.244588 84.127087 53.688312 -4.989669 -11.787490 9.715591 -0.008331 0.119884 0.112069
-94.641362 66.562648 93.156077 173.726276 -40.051284 -4.482117 3.426554 20.518831 3.115988 0.369883 2.648588 0.335909 0.613558 4.329510 0.558640 2.833336 17.483791 2.638737 1.169056 16.885848 -0.971265 2.562801 -4.287754 -2.093945 -4.582035 2.278474 -0.980256 -8.280742 1.309049 -0.339413 -177.032661 -66.500826 -169.979283 24.716924 18.188665 64.851004 -3.530364 2.705441 -0.229778 8.482450 -0.157010 2.389533 -148.337698 -69.002155 140.748889 -11.869836 1.384659 -2.489567 -2.991328 -41.643475 4.293968 -124.682945 85.471440 -120.018343 0.538164 -9.878881 -0.599047 -0.137015 0.235564 0.065628 -2.662078 -37.437076 6.632580 63.954194 84.206988 53.309711 -5.060782 -11.798255 9.759770 0.040888 0.138956 0.134251
-94.659053 66.500274 93.139792 173.716942 -39.992983 -4.385333 3.442321 20.537190 3.100204 0.342692 2.608274 0.302239 0.635577 4.344410 0.588234 2.819302 17.456588 2.631591 1.153355 16.916048 -0.963069 2.563389 -4.241727 -2.066086 -4.572406 2.279881 -0.978032 -8.265556 1.294746 -0.320676 -177.024037 -66.564423 -170.016505 24.387466 17.985294 64.397475 -3.531212 2.656278 -0.285789 8.379134 -0.244974 2.301950 -148.395636 -69.416714 140.745840 -11.551112 0.794119 -1.864987 -2.876739 -41.568487 4.039350 -125.074851 85.681908 -120.281089 0.528049 -10.021231 -0.818939 -0.134337 0.269789 0.119236 -2.595033 -37.499834 6.589074 63.747533 84.279106 53.000594 -5.083997 -11.826278 9.843003 0.049137 0.171451 0.111500
-94.684912 66.411829 93.127783 173.728539 -39.888669 -4.279489 3.419065 20.474957 3.020861 0.368690 2.636792 0.339311 0.611597 4.311129 0.564222 2.818132 17.440235 2.643900 1.177079 16.970489 -0.915553 2.514066 -4.241271 -2.083857 -4.569168 2.288797 -0.975415 -8.254140 1.284609 -0.284983 -177.173693 -66.614148 -169.926408 24.036060 17.780033 63.853311 -3.539269 2.625919 -0.332766 8.241005 -0.334751 2.202089 -148.093752 -69.746560 140.471900 -11.297749 0.217632 -1.294947 -2.818876 -41.542465 3.800224 -125.209527 85.861582 -120.345685 0.519070 -10.135064 -1.001375 -0.119647 0.269568 0.151733 -2.530670 -37.626060 6.477302 63.899467 84.308446 53.106120 -5.122965 -11.877789 9.871684 0.065764 0.225018 0.125535
-94.714091 66.312548 93.107048 173.741374 -39.823151 -4.162472 3.389367 20.442058 2.919807 0.381043 2.638575 0.349060 0.609826 4.303653 0.566122 2.813960 17.426503 2.653295 1.190313 17.001056 -0.887638 2.461017 -4.254754 -2.107072 -4.559456 2.306407 -0.961958 -8.249621 1.281243 -0.232694 -177.470285 -66.647656 -169.711266 23.665678 17.575902 63.219836 -3.533013 2.606166 -0.338607 8.064176 -0.406395 2.071841 -147.444822 -69.986072 139.928591 -11.107534 -0.337220 -0.803762 -2.803725 -41.482321 3.593400 -125.108817 86.008567 -120.234188 0.512358 -10.217716 -1.141065 -0.102356 0.252963 0.174272 -2.452030 -37.717341 6.344133 64.191621 84.337176 53.359067 -5.187131 -11.959592 9.891541 0.099214 0.303545 0.147576
-94.739362 66.204077 93.084584 173.757184 -39.768701 -4.064462 3.343445 20.402848 2.813142 0.419515 2.653559 0.376105 0.594985 4.292883 0.559076 2.795687 17.416422 2.649584 1.219159 17.018084 -0.860386 2.451021 -4.206290 -2.071953 -4.554835 2.315761 -0.954745 -8.217474 1.297793 -0.148643 -177.924252 -66.657335 -169.364478 23.271734 17.375365 62.501236 -3.540432 2.603243 -0.331114 7.907066 -0.470878 1.941136 -146.522404 -70.141524 139.166988 -10.966076 -0.861045 -0.400459 -2.844188 -41.428803 3.448369 -124.932869 86.116415 -120.092340 0.510881 -10.279488 -1.237428 -0.081896 0.195753 0.164882 -2.349234 -37.791025 6.232254 64.332230 84.380703 53.481224 -5.286568 -12.053383 9.918360 0.162153 0.397926 0.168824
-94.770017 66.088883 93.063631 173.799355 -39.702520 -3.954958 3.311616 20.371321 2.717826 0.415940 2.648337 0.376665 0.592176 4.285957 0.561527 2.763678 17.403322 2.637614 1.245600 17.028239 -0.837279 2.482011 -4.154705 -2.022509 -4.491087 2.351398 -0.913285 -8.243010 1.286806 -0.082540 -178.579670 -66.633491 -168.861710 22.835312 17.171841 61.711602 -3.552483 2.605522 -0.322851 7.749671 -0.522314 1.814556 -145.438375 -70.238385 138.268789 -10.857467 -1.346255 -0.075068 -2.892947 -41.423008 3.292299 -124.845601 86.175993 -120.066883 0.503605 -10.300176 -1.296188 -0.050745 0.084979 0.138089 -2.256451 -37.889098 6.057819 64.700527 84.403939 53.851417 -5.367887 -12.157538 9.920505 0.226726 0.504417 0.173395
-94.797311 65.972505 93.046579 173.845806 -39.623947 -3.851747 3.274785 20.326363 2.624962 0.412751 2.644316 0.375822 0.601375 4.282222 0.572934 2.743241 17.388679 2.644300 1.239270 17.029080 -0.839856 2.492150 -4.143516 -2.010231 -4.434852 2.394774 -0.885595 -8.277886 1.264011 -0.015945 -179.490759 -66.561746 -168.168415 22.326520 16.937075 60.874626 -3.586759 2.604064 -0.336438 7.592875 -0.559548 1.699061 -144.305236 -70.314596 137.321050 -10.770586 -1.795342 0.192590 -2.882685 -41.462278 3.128260 -124.745891 86.182004 -120.003283 0.492643 -10.316198 -1.326813 -0.015478 0.001193 0.134118 -2.175459 -38.000512 5.887111 65.113954 84.420424 54.268615 -5.442435 -12.259875 9.915680 0.272225 0.604537 0.197570
